# xmcd CD database file
#
# Track frame offsets:
#	150
#	26362
#	56912
#	73603
#	109864
#	153840
#	185926
#	212101
#	241597
#	275773
#
# Disc length: 4233 seconds
#
# Revision: 0
# Processed by: cddbd v1.5.2PL0 Copyright (c) Steve Scherf et al.
# Submitted via: CDex 1.51
#
DISCID=9010870a
DTITLE=Neil H - Voices Of The Heart
DYEAR=2007
DGENRE=New Age
TTITLE0=Hidden Feelings
TTITLE1=No Secrets
TTITLE2=To Touch The Dream
TTITLE3=Tender Embrace
TTITLE4=Thoughts Of You
TTITLE5=Secret Whisper
TTITLE6=Forbidden Love
TTITLE7=Sadness Of Missing You
TTITLE8=Tears Of Passion
TTITLE9=Voices Of The Heart
EXTD=YEAR: 2007
EXTT0=
EXTT1=
EXTT2=
EXTT3=
EXTT4=
EXTT5=
EXTT6=
EXTT7=
EXTT8=
EXTT9=
PLAYORDER=
